<?xml version="1.0" encoding="UTF-8" standalone="no"?>
<!-- Created with Inkscape (http://www.inkscape.org/) -->

<svg
   xmlns:dc="http://purl.org/dc/elements/1.1/"
   xmlns:cc="http://creativecommons.org/ns#"
   xmlns:rdf="http://www.w3.org/1999/02/22-rdf-syntax-ns#"
   xmlns:svg="http://www.w3.org/2000/svg"
   xmlns="http://www.w3.org/2000/svg"
   xmlns:sodipodi="http://sodipodi.sourceforge.net/DTD/sodipodi-0.dtd"
   xmlns:inkscape="http://www.inkscape.org/namespaces/inkscape"
   width="1920"
   height="1080"
   viewBox="0 0 508 285.75001"
   version="1.1"
   id="svg8"
   inkscape:version="0.92.3 (2405546, 2018-03-11)"
   sodipodi:docname="fishy_single.svg">
  <defs
     id="defs2">
    <inkscape:perspective
       sodipodi:type="inkscape:persp3d"
       inkscape:vp_x="0 : 142.875 : 1"
       inkscape:vp_y="0 : 1000 : 0"
       inkscape:vp_z="508 : 142.875 : 1"
       inkscape:persp3d-origin="254 : 95.250003 : 1"
       id="perspective3719" />
  </defs>
  <sodipodi:namedview
     id="base"
     pagecolor="#ffffff"
     bordercolor="#666666"
     borderopacity="1.0"
     inkscape:pageopacity="0.0"
     inkscape:pageshadow="2"
     inkscape:zoom="0.62490562"
     inkscape:cx="1635.599"
     inkscape:cy="696.15871"
     inkscape:document-units="mm"
     inkscape:current-layer="layer1"
     showgrid="false"
     units="px"
     inkscape:measure-start="0,0"
     inkscape:measure-end="0,0"
     inkscape:window-width="1920"
     inkscape:window-height="1001"
     inkscape:window-x="-9"
     inkscape:window-y="-9"
     inkscape:window-maximized="1"
     showguides="false" />
  <metadata
     id="metadata5">
    <rdf:RDF>
      <cc:Work
         rdf:about="">
        <dc:format>image/svg+xml</dc:format>
        <dc:type
           rdf:resource="http://purl.org/dc/dcmitype/StillImage" />
        <dc:title></dc:title>
      </cc:Work>
    </rdf:RDF>
  </metadata>
  <g
     inkscape:label="Layer 1"
     inkscape:groupmode="layer"
     id="layer1"
     transform="translate(0,-11.249983)">
    <path
       style="fill:#ffffff;stroke:#000000;stroke-width:0.80012083"
       d=""
       id="path4654"
       inkscape:connector-curvature="0"
       transform="matrix(0.26458333,0,0,0.26458333,0,11.249983)" />
    <path
       style="fill:#ffffff;stroke:#000000;stroke-width:0.80012083"
       d=""
       id="path4656"
       inkscape:connector-curvature="0"
       transform="matrix(0.26458333,0,0,0.26458333,0,11.249983)" />
    <path
       style="fill:#f2f2f2;fill-opacity:1;stroke:#ececec;stroke-width:0.16166958"
       d="m 366.13029,167.97143 c -5.43452,-1.02729 -11.3985,-1.59976 -17.68299,-1.34128 0.79377,-0.0627 1.42513,-0.11618 1.4444,-0.12845 0.0288,-0.0184 -0.51031,-0.29563 -1.19806,-0.61616 -5.69367,-2.6536 -15.06423,-4.28521 -21.04486,-3.6642 -1.76015,0.18277 -3.67852,0.65385 -3.59322,0.88247 0.0336,0.0901 0.29507,0.25603 0.58085,0.36825 0.90853,0.35707 2.50737,1.72783 3.31065,2.83937 0.99873,1.38201 1.24988,2.23248 0.96079,3.25207 -0.11071,0.39088 -0.18719,0.70602 -0.184,0.75299 -8.76511,3.01672 -17.71825,8.09394 -26.39576,16.0688 -14.51198,-5.76891 -15.43795,-8.68952 -28.76406,-10.75649 5.22128,6.05555 10.536,15.47132 14.22447,16.61455 -1.90749,0.96641 -5.03561,6.24112 -5.88581,17.81679 l 18.6406,-14.7234 c 11.3339,5.34069 31.4033,8.53235 47.90173,6.71762 0.65971,0.83842 0.94065,1.60049 0.7913,2.18752 -0.29075,0.59405 -2.03903,2.92641 -2.03903,2.92641 3.91475,0.36193 14.58636,-2.3676 17.55716,-5.34508 0.86908,-0.67343 1.99619,-1.80844 3.17253,-3.19488 0.55216,-0.65078 1.15734,-1.35153 1.34481,-1.55716 0.013,-0.015 0.0211,-0.0248 0.0336,-0.0387 22.83333,-7.89049 26.79152,-17.95348 25.88522,-17.62799 -0.37906,-0.64834 -12.15959,-8.23815 -29.06032,-11.43297 z m 11.47995,7.36063 a 4.3204006,4.3204006 0 0 1 3.46055,5.03538 4.3204006,4.3204006 0 0 1 -5.03538,3.46055 4.3204006,4.3204006 0 0 1 -3.46079,-5.03544 4.3204006,4.3204006 0 0 1 5.03562,-3.46049 z"
       id="path3821-2"
       inkscape:connector-curvature="0" />
    <path
       style="fill:none;stroke:#ececec;stroke-width:0.31031075px;stroke-linecap:butt;stroke-linejoin:miter;stroke-opacity:1"
       d="m 454.30528,-19.475945 -0.4234,146.693615"
       id="path111"
       inkscape:connector-curvature="0"
       sodipodi:nodetypes="cc" />
    <path
       style="fill:none;stroke:#ececec;stroke-width:1.26499999;stroke-linecap:butt;stroke-linejoin:miter;stroke-miterlimit:4;stroke-dasharray:none;stroke-opacity:1"
       d="m 456.98785,130.70629 a 3.1754794,3.1754794 0 0 1 -3.17548,3.17549 3.1754794,3.1754794 0 0 1 -3.17547,-3.17549 3.1754794,3.1754794 0 0 1 3.17547,-3.17547 3.1754794,3.1754794 0 0 1 3.17548,3.17547 v 0"
       id="path996"
       inkscape:connector-curvature="0" />
    <path
       style="fill:none;stroke:#ececec;stroke-width:1.26499999;stroke-linecap:butt;stroke-linejoin:miter;stroke-miterlimit:4;stroke-dasharray:none;stroke-opacity:1"
       d="m 449.58153,151.97747 c -1.42402,-0.0935 -2.50828,-0.95118 -3.03001,-1.92943 -0.8468,-1.58774 -0.74094,-4.55151 -0.74094,-4.55151"
       id="path994"
       inkscape:connector-curvature="0" />
    <path
       style="fill:none;stroke:#ececec;stroke-width:1.26499999;stroke-linecap:butt;stroke-linejoin:miter;stroke-miterlimit:4;stroke-dasharray:none;stroke-opacity:1"
       d="m 453.74927,133.85311 c 0,0 1.90529,8.78548 1.6936,10.90247 -0.16285,1.62833 -0.0752,3.44453 -1.32657,5.01508"
       id="path990"
       inkscape:connector-curvature="0" />
    <path
       style="fill:#e6e6e6;stroke:#ececec;stroke-width:1.26499999;stroke-linecap:butt;stroke-linejoin:miter;stroke-miterlimit:4;stroke-dasharray:none;stroke-opacity:1"
       d="m 444.20157,147.83637 1.60922,-2.4793 v 0 l 1.70276,2.45123"
       id="path131"
       inkscape:connector-curvature="0" />
    <path
       id="path954"
       style="fill:none;stroke:none;stroke-width:0.86500001;stroke-linecap:butt;stroke-linejoin:miter;stroke-miterlimit:4;stroke-dasharray:none;stroke-opacity:1"
       d="m 458.72596,176.00082 -31.75189,-3.13638 m 49.14663,44.91548 -5.98586,-31.40672 m 30.33592,4.76286 -39.94784,-6.08988 -5.41658,-22.86194 -3.78222,-15.96367 m 49.14664,44.91549 -49.14664,-44.91551 -3.82468,4.18498 -20.52537,22.45891 49.14663,44.91549 z"
       inkscape:connector-curvature="0"
       sodipodi:nodetypes="cccccccccccccc" />
    <path
       style="fill:#ececec;fill-opacity:1;stroke:none;stroke-width:0.34605226;stroke-miterlimit:4;stroke-dasharray:none"
       d="m 479.82028,187.51654 c -10.04244,-1.53469 -18.40431,-2.81546 -18.5819,-2.84615 l -0.32287,-0.0558 -1.02994,-4.36545 c -0.56645,-2.401 -1.05056,-4.46071 -1.07575,-4.57715 -0.0251,-0.11643 -1.49399,-6.30862 -3.26395,-13.76041 -1.76998,-7.45179 -3.25427,-13.71346 -3.29845,-13.91482 l -0.0803,-0.36611 0.79499,0.73658 c 0.60018,0.55607 0.76796,0.77011 0.68461,0.87338 -0.12081,0.14968 -0.12742,0.14153 0.51483,0.63385 0.2413,0.18497 0.47564,0.29279 0.52925,0.24348 0.0546,-0.0502 9.49436,8.50404 21.82738,19.77981 11.95215,10.92757 21.85858,19.99567 22.01423,20.15134 l 0.28305,0.28303 -0.36809,-0.0126 c -0.20243,-0.007 -8.58461,-1.26827 -18.62706,-2.80296 z"
       id="path998"
       inkscape:connector-curvature="0" />
    <path
       style="fill:#e6e6e6;fill-opacity:1;stroke:none;stroke-width:0.34605226;stroke-miterlimit:4;stroke-dasharray:none"
       d="m 442.56528,174.61563 c -7.96269,-0.79333 -14.48224,-1.48351 -14.48792,-1.53372 -0.006,-0.0502 4.10379,-4.58993 9.13217,-10.08826 5.0284,-5.49832 9.26457,-10.14219 9.41369,-10.3197 l 0.27112,-0.32274 0.53173,0.32719 c 0.29247,0.17995 0.85116,0.41096 1.24156,0.51335 0.84381,0.22132 0.90871,0.17346 0.91125,-0.67209 l 0.003,-0.54218 -0.39692,-0.0644 c -0.32184,-0.0522 -1.1058,-0.38998 -1.28397,-0.55315 -0.0222,-0.0203 0.66622,-0.80616 1.52968,-1.74642 l 1.56996,-1.70957 0.13076,0.56782 c 0.0642,0.27874 1.25859,5.32537 2.75888,11.65753 0.18071,0.76274 0.36587,1.54413 0.55402,2.33808 1.75019,7.38529 3.18214,13.4703 3.18214,13.52226 0,0.0519 -0.13099,0.0886 -0.29109,0.0814 -0.1601,-0.007 -6.80601,-0.66209 -14.76867,-1.45543 z"
       id="path1000"
       inkscape:connector-curvature="0"
       sodipodi:nodetypes="ccccccccccccccscsccc" />
    <path
       style="fill:#ececec;fill-opacity:1;stroke:none;stroke-width:0.34605226;stroke-miterlimit:4;stroke-dasharray:none"
       d="m 451.81323,195.11656 c -12.87706,-11.76819 -23.39507,-21.41449 -23.37332,-21.43622 0.0217,-0.0217 6.66078,0.61438 14.75346,1.41358 l 14.71393,1.45309 1.04637,4.43111 c 0.5755,2.43711 1.07601,4.47906 1.11223,4.53768 0.0362,0.0586 2.19676,0.43265 4.80116,0.83119 2.60437,0.39855 4.75535,0.74473 4.77993,0.7693 0.0531,0.0531 5.63899,29.33095 5.60351,29.37006 -0.0135,0.0148 -10.56021,-9.60161 -23.43727,-21.36979 z"
       id="path1002"
       inkscape:connector-curvature="0" />
    <path
       style="fill:#ececec;fill-opacity:1;stroke:none;stroke-width:0.34605226;stroke-miterlimit:4;stroke-dasharray:none;stroke-opacity:1"
       d="m 476.38969,216.57399 c -0.15303,-0.45593 -5.58202,-29.33137 -5.52534,-29.38804 0.0797,-0.0797 28.33867,4.20006 28.46472,4.31097 0.0617,0.0543 -14.54806,16.15723 -22.79976,25.13 -0.0527,0.0573 -0.1099,0.0356 -0.13962,-0.0529 z"
       id="path1004"
       inkscape:connector-curvature="0" />
    <path
       style="fill:#0b1d31;stroke:none;stroke-width:1.13154173;stroke-opacity:1;fill-opacity:0"
       d="m 1403.5524,674.86892 c -5.0229,-2.1836 -8.2165,-7.80168 -8.2217,-14.46348 -0.012,-15.60118 22.0895,-20.01105 28.8534,-5.75701 3.3652,7.09162 0.6264,15.29617 -6.5712,19.68481 -4.2288,2.57846 -8.9479,2.75825 -14.0605,0.53568 z"
       id="path864"
       inkscape:connector-curvature="0"
       transform="matrix(0.26458333,0,0,0.26458333,0,11.249983)" />
    <path
       style="fill:#0b1d31;fill-opacity:0;stroke:none;stroke-width:1.13154173;stroke-opacity:1"
       d="m 802.34631,918.70233 c -3.88773,-0.54971 -7.56051,-1.3035 -8.16172,-1.67508 -0.60121,-0.37156 0.95004,-2.52145 3.44724,-4.77751 4.03816,-3.64823 4.50286,-4.5971 4.20133,-8.57849 l -0.33903,-4.47654 -18.10467,-3.73069 c -54.96852,-11.32694 -108.84188,-34.77419 -150.5463,-65.52212 -0.98841,-0.72874 -13.93748,4.44621 -41.42879,16.55655 -21.99503,9.68913 -40.13862,17.48669 -40.31909,17.32789 -0.70809,-0.62306 7.01025,-18.67524 12.28129,-28.72433 7.45224,-14.20748 15.15412,-23.51045 23.46463,-28.3425 1.09623,-0.63739 0.57116,-1.81947 -2.05872,-4.63476 -4.11151,-4.40139 -11.26899,-18.88295 -18.44434,-37.31797 -2.78567,-7.157 -6.87987,-17.21357 -9.09822,-22.34795 -2.21835,-5.13437 -3.73872,-9.33521 -3.3786,-9.33521 0.36012,0 6.63702,3.09208 13.94867,6.87129 13.39789,6.92504 28.3265,17.36229 41.88781,29.28563 8.09824,7.1201 30.83349,25.46753 34.69229,27.99679 2.22374,1.45756 3.34246,1.15122 12.44696,-3.40828 30.09732,-15.07266 57.93447,-23.17068 98.533,-28.66392 8.97568,-1.21447 7.93116,-15.54395 -1.95371,-26.80218 -2.03969,-2.32309 -3.47428,-4.45806 -3.18797,-4.74437 0.28632,-0.28631 4.80953,0.0123 10.05158,0.66364 11.70608,1.45446 29.41181,7.25173 44.53819,14.58285 16.98878,8.23375 33.95016,19.63717 30.88704,20.76587 -0.76799,0.28299 0.13124,0.8827 1.99828,1.33268 43.93254,10.5884 88.71184,32.66824 125.03536,61.65261 11.65863,9.30301 26.44398,23.17777 28.19906,26.46233 1.48111,2.77186 1.39193,3.24423 -1.13154,5.99378 -3.64497,3.97152 -16.51754,12.30372 -24.55793,15.89593 -19.60421,8.75857 -46.22677,15.29438 -74.71042,18.34131 -8.30689,0.8886 -10.14946,1.52881 -15.84158,5.50421 -8.61371,6.01586 -16.90096,10.09618 -24.80987,12.2154 -7.78199,2.0852 -37.19678,3.09569 -47.54023,1.63314 z m 133.45988,-61.2689 c 6.09685,-4.34133 8.42185,-14.46629 4.89018,-21.2958 -6.84099,-13.229 -27.11702,-11.02427 -30.81697,3.35091 -3.9922,15.51068 12.9131,27.21146 25.92679,17.94489 z"
       id="path866"
       inkscape:connector-curvature="0"
       transform="matrix(0.26458333,0,0,0.26458333,0,11.249983)" />
    <path
       style="fill:#0b1d31;fill-opacity:0;stroke:none;stroke-width:1.13154173;stroke-opacity:1"
       d="m 1052.1306,773.98015 c 0,-0.64612 0.7868,-6.8158 1.7484,-13.71041 2.9965,-21.48363 10.0149,-41.27537 17.1764,-48.43687 l 2.9126,-2.91256 -2.7049,-1.75974 c -6.5269,-4.24634 -12.4923,-10.93286 -26.3028,-29.4825 -8.1086,-10.89109 -16.7991,-22.29843 -19.3122,-25.34965 l -4.5693,-5.54767 4.4934,0.79729 c 10.8117,1.9184 28.4675,6.57561 35.4167,9.34219 4.152,1.65295 15.4416,6.78424 25.088,11.40287 19.4593,9.31701 40.2047,18.4073 42.008,18.4073 0.6442,0 6.0316,-4.0568 11.972,-9.01511 26.558,-22.16754 48.7206,-35.19205 85.4825,-50.23617 3.9241,-1.60586 4.2433,-2.08301 4.2433,-6.34288 0,-7.06091 -5.5889,-14.81364 -14.5415,-20.17166 -4.4965,-2.69107 -4.0307,-2.94219 8.8838,-4.78946 13.06,-1.8681 35.8359,0.45536 56.9932,5.81409 11.859,3.00365 23.5946,7.78031 22.9891,9.3571 -0.3282,0.85478 1.163,1.13582 4.5749,0.86225 7.9513,-0.63754 39.8951,1.94523 54.1055,4.37462 39.0032,6.66793 84.1097,23.02701 111.1478,40.31077 l 5.9634,3.81198 -2.4302,4.80856 c -3.6109,7.14486 -19.2811,21.99937 -32.1273,30.45497 -13.6737,9.00026 -32.7184,18.67055 -50.3264,25.55416 -12.8866,5.03783 -13.1597,5.2211 -23.2238,15.58473 -11.3873,11.72615 -16.9814,15.0761 -34.5531,20.6917 -12.5409,4.00783 -29.0244,7.30297 -33.9892,6.79463 l -3.4541,-0.35367 3.4349,-4.52616 c 3.9325,-5.18194 4.3413,-8.34924 1.5176,-11.75754 -1.942,-2.34402 -2.3382,-2.36814 -20.5265,-1.25037 -47.7159,2.93241 -110.8459,-6.13226 -149.5465,-21.47297 -6.3233,-2.50652 -11.9991,-4.55731 -12.6129,-4.55731 -0.8661,0 -32.2707,24.44285 -67.3449,52.41593 -1.4222,1.13428 -2.5859,1.53368 -2.5859,0.88756 z m 365.2613,-97.89188 c 6.0635,-3.15483 8.54,-7.00819 8.9875,-13.9844 0.3241,-5.0531 -0.088,-7.29328 -1.8591,-10.11344 -6.3088,-10.04377 -22.1453,-9.89404 -28.4262,0.26875 -3.1236,5.05403 -2.7658,14.89508 0.6826,18.77412 5.611,6.31176 14.1673,8.40981 20.6152,5.05497 z"
       id="path868"
       inkscape:connector-curvature="0"
       transform="matrix(0.26458333,0,0,0.26458333,0,11.249983)" />
    <path
       style="fill:#0b1d31;fill-opacity:0;stroke:none;stroke-width:1.13154173;stroke-opacity:1"
       d="m 1068.5893,1041.219 c -1.2286,-21.3083 1.9828,-42.32947 7.8418,-51.33019 l 2.6397,-4.05518 -3.6563,-1.32212 c -6.1646,-2.22916 -13.8176,-8.36038 -36.5636,-29.29328 l -21.8567,-20.11442 8.233,-0.35369 c 16.0455,-0.68934 31.3371,1.79398 61.6048,10.0045 13.4129,3.63841 40.192,10.15117 41.7396,10.15117 0.1779,0 4.6305,-5.21923 9.8946,-11.5983 18.7814,-22.7596 44.1333,-45.43385 66.557,-59.52741 10.4498,-6.56776 10.6207,-6.74642 10.9693,-11.46311 0.3268,-4.42185 -0.057,-5.18478 -4.9698,-9.89255 -2.9282,-2.80565 -7.9005,-6.23831 -11.0497,-7.62814 l -5.7258,-2.52695 6.7352,-2.53557 c 13.5411,-5.09775 21.2403,-6.1433 45.7734,-6.21605 22.3709,-0.0663 39.918,1.65338 41.404,4.05783 0.3281,0.53093 -0.027,0.96533 -0.7903,0.96533 -0.7628,0 -1.1419,0.24508 -0.8423,0.54462 0.2995,0.29954 5.6036,-0.42523 11.7869,-1.6106 38.0459,-7.29362 88.7571,-5.77917 129.2493,3.85995 16.5087,3.92987 39.9333,11.96619 40.6995,13.96287 1.9375,5.04899 -10.365,24.25138 -24.7593,38.6457 -11.7261,11.72609 -31.556,26.9933 -47.6863,36.71412 -9.801,5.90652 -11.5224,7.4417 -15.2109,13.56598 -10.32,17.13475 -18.509,24.46478 -38.5715,34.5255 -9.5468,4.78739 -29.437,12.00829 -30.4066,11.03876 -0.2929,-0.2929 0.5214,-2.59838 1.8095,-5.12329 2.9073,-5.69877 2.9423,-8.13869 0.1675,-11.66634 l -2.1745,-2.76448 -14.7499,3.70015 c -29.6373,7.43485 -52.5296,10.42677 -86.7002,11.33134 -27.0696,0.71658 -47.559,-0.4417 -65.2229,-3.68711 -19.3234,-3.55028 -13.5235,-7.27771 -45.0654,28.96206 -15.2272,17.4952 -28.2818,32.304 -29.0102,32.9085 -0.9923,0.8235 -1.5171,-2.2434 -2.0929,-12.2296 z m 339.9364,-148.83089 c 12.1039,-6.20659 12.1144,-23.34087 0.018,-29.41832 -12.5191,-6.28981 -26.0819,4.07332 -23.9894,18.33 0.6379,4.34642 7.702,12.05136 11.7573,12.82386 5.3991,1.0285 7.3697,0.74848 12.214,-1.73554 z"
       id="path870"
       inkscape:connector-curvature="0"
       transform="matrix(0.26458333,0,0,0.26458333,0,11.249983)" />
    <path
       style="fill:#0b1d31;fill-opacity:0;stroke:none;stroke-width:1.13154173;stroke-opacity:1"
       d="m 1701.6356,619.88526 c -10.8911,-1.14058 -33.2957,-3.43789 -49.7879,-5.10514 -16.4922,-1.66724 -30.4054,-3.40891 -30.9182,-3.87037 -0.5128,-0.46146 14.663,-17.96012 33.724,-38.88592 l 34.6565,-38.04692 3.2777,1.695 c 4.7576,2.46023 6.7848,2.1581 6.7848,-1.0112 0,-1.96284 -0.7991,-2.90675 -2.9093,-3.43636 -1.6,-0.40159 -2.7457,-1.16495 -2.5459,-1.69634 0.512,-1.36191 10.1261,-11.64848 10.4681,-11.20044 0.1549,0.20289 5.5412,22.77342 11.9695,50.15672 6.4283,27.38331 11.916,50.67893 12.1947,51.76804 0.6259,2.4451 -0.1643,2.43432 -26.914,-0.36707 z"
       id="path872"
       inkscape:connector-curvature="0"
       transform="matrix(0.26458333,0,0,0.26458333,0,11.249983)" />
    <path
       style="fill:#0b1d31;fill-opacity:0;stroke:none;stroke-width:1.13154173;stroke-opacity:1"
       d="m 1747.3488,729.54214 c -95.6882,-87.24123 -125.2068,-114.56941 -124.1377,-114.92578 0.8983,-0.29943 78.6994,6.95526 101.147,9.43163 l 6.3152,0.69668 3.7822,16.3481 c 2.534,10.95309 4.3827,16.66955 5.6021,17.32215 1.001,0.53572 9.2754,2.12146 18.3875,3.52387 l 16.5674,2.54984 1.1386,6.31184 c 0.6262,3.4715 5.2305,27.673 10.2317,53.78109 5.0012,26.10809 8.9319,47.63051 8.7348,47.82759 -0.1971,0.19708 -21.6931,-19.09308 -47.7688,-42.86701 z"
       id="path874"
       inkscape:connector-curvature="0"
       transform="matrix(0.26458333,0,0,0.26458333,0,11.249983)" />
    <path
       style="fill:#0b1d31;fill-opacity:0;stroke:none;stroke-width:1.13154173;stroke-opacity:1"
       d="m 1800.7371,773.85173 c -0.8757,-2.40816 -19.8936,-104.11568 -19.8936,-106.39098 0,-1.99583 11.9789,-0.48017 81.1215,10.26412 l 23.9786,3.72612 -2.2337,2.83962 c -1.2285,1.56179 -19.4022,21.65414 -40.3859,44.64966 -20.9838,22.99553 -39.0119,42.8881 -40.0624,44.20572 -1.5563,1.95215 -2.0237,2.08281 -2.5245,0.70574 z"
       id="path876"
       inkscape:connector-curvature="0"
       transform="matrix(0.26458333,0,0,0.26458333,0,11.249983)" />
  </g>
</svg>
