<?xml version="1.0" encoding="UTF-8" standalone="no"?>
<!-- Created with Inkscape (http://www.inkscape.org/) -->

<svg
   xmlns:dc="http://purl.org/dc/elements/1.1/"
   xmlns:cc="http://creativecommons.org/ns#"
   xmlns:rdf="http://www.w3.org/1999/02/22-rdf-syntax-ns#"
   xmlns:svg="http://www.w3.org/2000/svg"
   xmlns="http://www.w3.org/2000/svg"
   xmlns:sodipodi="http://sodipodi.sourceforge.net/DTD/sodipodi-0.dtd"
   xmlns:inkscape="http://www.inkscape.org/namespaces/inkscape"
   width="800"
   height="800"
   viewBox="0 0 211.66667 211.66667"
   version="1.1"
   id="svg8"
   inkscape:version="0.92.3 (2405546, 2018-03-11)"
   sodipodi:docname="fishy_single.svg">
  <defs
     id="defs2">
    <inkscape:perspective
       sodipodi:type="inkscape:persp3d"
       inkscape:vp_x="0 : 142.875 : 1"
       inkscape:vp_y="0 : 999.99998 : 0"
       inkscape:vp_z="508.00001 : 142.875 : 1"
       inkscape:persp3d-origin="254 : 95.250002 : 1"
       id="perspective3719" />
  </defs>
  <sodipodi:namedview
     id="base"
     pagecolor="#ffffff"
     bordercolor="#666666"
     borderopacity="1.0"
     inkscape:pageopacity="0.0"
     inkscape:pageshadow="2"
     inkscape:zoom="0.62490562"
     inkscape:cx="867.48301"
     inkscape:cy="504.12971"
     inkscape:document-units="mm"
     inkscape:current-layer="layer1"
     showgrid="false"
     units="px"
     inkscape:measure-start="0,0"
     inkscape:measure-end="0,0"
     inkscape:window-width="1920"
     inkscape:window-height="1001"
     inkscape:window-x="-9"
     inkscape:window-y="-9"
     inkscape:window-maximized="1"
     showguides="false" />
  <metadata
     id="metadata5">
    <rdf:RDF>
      <cc:Work
         rdf:about="">
        <dc:format>image/svg+xml</dc:format>
        <dc:type
           rdf:resource="http://purl.org/dc/dcmitype/StillImage" />
        <dc:title></dc:title>
      </cc:Work>
    </rdf:RDF>
  </metadata>
  <g
     inkscape:label="Layer 1"
     inkscape:groupmode="layer"
     id="layer1"
     transform="translate(0,-85.333316)">
    <path
       style="fill:#ffffff;stroke:#000000;stroke-width:0.80012083"
       d=""
       id="path4654"
       inkscape:connector-curvature="0"
       transform="matrix(0.26458333,0,0,0.26458333,0,11.249983)" />
    <path
       style="fill:#ffffff;stroke:#000000;stroke-width:0.80012083"
       d=""
       id="path4656"
       inkscape:connector-curvature="0"
       transform="matrix(0.26458333,0,0,0.26458333,0,11.249983)" />
    <path
       style="fill:#000055;fill-opacity:1;stroke:#ececec;stroke-width:0.27707785"
       d="m 141.08753,137.33392 c -9.02432,2.79659 -18.47982,6.70834 -27.74775,12.13898 1.14633,-0.73156 2.05521,-1.31892 2.07436,-1.35301 0.0286,-0.051 -1.0082,-0.0399 -2.30407,0.0247 -10.72813,0.53451 -26.175658,5.56875 -34.692683,11.30635 -2.506633,1.68862 -5.019076,3.94194 -4.705869,4.22075 0.123411,0.1099 0.651661,0.15228 1.173197,0.0936 1.6583,-0.18606 5.175958,0.61391 7.28468,1.658 2.621817,1.29815 3.687183,2.38839 4.074437,4.16855 0.148643,0.68237 0.28775,1.22227 0.330485,1.29105 -10.781621,11.60809 -20.183185,26.49614 -26.829643,45.56376 -26.540804,2.8728 -30.295129,-0.82031 -52.05887,6.72382 12.762439,5.01058 28.378723,15.04929 34.863718,13.82854 -2.096124,2.99682 -2.554484,13.51504 5.509337,31.77614 l 16.221593,-37.30346 c 21.402727,-0.97535 54.242968,-12.21734 77.656398,-28.19959 1.67171,0.74441 2.71063,1.67651 2.95936,2.68773 0.0412,1.13525 -0.71202,6.07887 -0.71202,6.07887 6.19541,-2.58869 20.08377,-15.28904 22.15962,-22.19243 0.76682,-1.71942 1.55005,-4.34669 2.20452,-7.39526 0.30721,-1.43096 0.65401,-2.98032 0.77069,-3.44289 0.007,-0.0332 0.0117,-0.0546 0.0194,-0.0856 28.06066,-30.28777 25.90478,-48.74322 24.80093,-47.52236 -1.09504,-0.68072 -24.98714,-2.76297 -53.05177,5.93398 z m 23.2538,1.97518 a 7.4308145,7.3783389 62.003383 0 1 9.28372,4.87282 7.4308145,7.3783389 62.003383 0 1 -4.79909,9.29211 7.4308145,7.3783389 62.003383 0 1 -9.28412,-4.87271 7.4308145,7.3783389 62.003383 0 1 4.79949,-9.29222 z"
       id="path3821-2"
       inkscape:connector-curvature="0" />
    <path
       id="path954"
       style="fill:none;stroke:none;stroke-width:0.86500001;stroke-linecap:butt;stroke-linejoin:miter;stroke-miterlimit:4;stroke-dasharray:none;stroke-opacity:1"
       d="m 458.72596,176.00082 -31.75189,-3.13638 m 49.14663,44.91548 -5.98586,-31.40672 m 30.33592,4.76286 -39.94784,-6.08988 -5.41658,-22.86194 -3.78222,-15.96367 m 49.14664,44.91549 -49.14664,-44.91551 -3.82468,4.18498 -20.52537,22.45891 49.14663,44.91549 z"
       inkscape:connector-curvature="0"
       sodipodi:nodetypes="cccccccccccccc" />
    <path
       style="fill:#0b1d31;fill-opacity:0;stroke:none;stroke-width:1.13154173;stroke-opacity:1"
       d="m 1403.5524,674.86892 c -5.0229,-2.1836 -8.2165,-7.80168 -8.2217,-14.46348 -0.012,-15.60118 22.0895,-20.01105 28.8534,-5.75701 3.3652,7.09162 0.6264,15.29617 -6.5712,19.68481 -4.2288,2.57846 -8.9479,2.75825 -14.0605,0.53568 z"
       id="path864"
       inkscape:connector-curvature="0"
       transform="matrix(0.26458333,0,0,0.26458333,0,11.249983)" />
    <path
       style="fill:#0b1d31;fill-opacity:0;stroke:none;stroke-width:1.13154173;stroke-opacity:1"
       d="m 802.34631,918.70233 c -3.88773,-0.54971 -7.56051,-1.3035 -8.16172,-1.67508 -0.60121,-0.37156 0.95004,-2.52145 3.44724,-4.77751 4.03816,-3.64823 4.50286,-4.5971 4.20133,-8.57849 l -0.33903,-4.47654 -18.10467,-3.73069 c -54.96852,-11.32694 -108.84188,-34.77419 -150.5463,-65.52212 -0.98841,-0.72874 -13.93748,4.44621 -41.42879,16.55655 -21.99503,9.68913 -40.13862,17.48669 -40.31909,17.32789 -0.70809,-0.62306 7.01025,-18.67524 12.28129,-28.72433 7.45224,-14.20748 15.15412,-23.51045 23.46463,-28.3425 1.09623,-0.63739 0.57116,-1.81947 -2.05872,-4.63476 -4.11151,-4.40139 -11.26899,-18.88295 -18.44434,-37.31797 -2.78567,-7.157 -6.87987,-17.21357 -9.09822,-22.34795 -2.21835,-5.13437 -3.73872,-9.33521 -3.3786,-9.33521 0.36012,0 6.63702,3.09208 13.94867,6.87129 13.39789,6.92504 28.3265,17.36229 41.88781,29.28563 8.09824,7.1201 30.83349,25.46753 34.69229,27.99679 2.22374,1.45756 3.34246,1.15122 12.44696,-3.40828 30.09732,-15.07266 57.93447,-23.17068 98.533,-28.66392 8.97568,-1.21447 7.93116,-15.54395 -1.95371,-26.80218 -2.03969,-2.32309 -3.47428,-4.45806 -3.18797,-4.74437 0.28632,-0.28631 4.80953,0.0123 10.05158,0.66364 11.70608,1.45446 29.41181,7.25173 44.53819,14.58285 16.98878,8.23375 33.95016,19.63717 30.88704,20.76587 -0.76799,0.28299 0.13124,0.8827 1.99828,1.33268 43.93254,10.5884 88.71184,32.66824 125.03536,61.65261 11.65863,9.30301 26.44398,23.17777 28.19906,26.46233 1.48111,2.77186 1.39193,3.24423 -1.13154,5.99378 -3.64497,3.97152 -16.51754,12.30372 -24.55793,15.89593 -19.60421,8.75857 -46.22677,15.29438 -74.71042,18.34131 -8.30689,0.8886 -10.14946,1.52881 -15.84158,5.50421 -8.61371,6.01586 -16.90096,10.09618 -24.80987,12.2154 -7.78199,2.0852 -37.19678,3.09569 -47.54023,1.63314 z m 133.45988,-61.2689 c 6.09685,-4.34133 8.42185,-14.46629 4.89018,-21.2958 -6.84099,-13.229 -27.11702,-11.02427 -30.81697,3.35091 -3.9922,15.51068 12.9131,27.21146 25.92679,17.94489 z"
       id="path866"
       inkscape:connector-curvature="0"
       transform="matrix(0.26458333,0,0,0.26458333,0,11.249983)" />
    <path
       style="fill:#0b1d31;fill-opacity:0;stroke:none;stroke-width:1.13154173;stroke-opacity:1"
       d="m 1052.1306,773.98015 c 0,-0.64612 0.7868,-6.8158 1.7484,-13.71041 2.9965,-21.48363 10.0149,-41.27537 17.1764,-48.43687 l 2.9126,-2.91256 -2.7049,-1.75974 c -6.5269,-4.24634 -12.4923,-10.93286 -26.3028,-29.4825 -8.1086,-10.89109 -16.7991,-22.29843 -19.3122,-25.34965 l -4.5693,-5.54767 4.4934,0.79729 c 10.8117,1.9184 28.4675,6.57561 35.4167,9.34219 4.152,1.65295 15.4416,6.78424 25.088,11.40287 19.4593,9.31701 40.2047,18.4073 42.008,18.4073 0.6442,0 6.0316,-4.0568 11.972,-9.01511 26.558,-22.16754 48.7206,-35.19205 85.4825,-50.23617 3.9241,-1.60586 4.2433,-2.08301 4.2433,-6.34288 0,-7.06091 -5.5889,-14.81364 -14.5415,-20.17166 -4.4965,-2.69107 -4.0307,-2.94219 8.8838,-4.78946 13.06,-1.8681 35.8359,0.45536 56.9932,5.81409 11.859,3.00365 23.5946,7.78031 22.9891,9.3571 -0.3282,0.85478 1.163,1.13582 4.5749,0.86225 7.9513,-0.63754 39.8951,1.94523 54.1055,4.37462 39.0032,6.66793 84.1097,23.02701 111.1478,40.31077 l 5.9634,3.81198 -2.4302,4.80856 c -3.6109,7.14486 -19.2811,21.99937 -32.1273,30.45497 -13.6737,9.00026 -32.7184,18.67055 -50.3264,25.55416 -12.8866,5.03783 -13.1597,5.2211 -23.2238,15.58473 -11.3873,11.72615 -16.9814,15.0761 -34.5531,20.6917 -12.5409,4.00783 -29.0244,7.30297 -33.9892,6.79463 l -3.4541,-0.35367 3.4349,-4.52616 c 3.9325,-5.18194 4.3413,-8.34924 1.5176,-11.75754 -1.942,-2.34402 -2.3382,-2.36814 -20.5265,-1.25037 -47.7159,2.93241 -110.8459,-6.13226 -149.5465,-21.47297 -6.3233,-2.50652 -11.9991,-4.55731 -12.6129,-4.55731 -0.8661,0 -32.2707,24.44285 -67.3449,52.41593 -1.4222,1.13428 -2.5859,1.53368 -2.5859,0.88756 z m 365.2613,-97.89188 c 6.0635,-3.15483 8.54,-7.00819 8.9875,-13.9844 0.3241,-5.0531 -0.088,-7.29328 -1.8591,-10.11344 -6.3088,-10.04377 -22.1453,-9.89404 -28.4262,0.26875 -3.1236,5.05403 -2.7658,14.89508 0.6826,18.77412 5.611,6.31176 14.1673,8.40981 20.6152,5.05497 z"
       id="path868"
       inkscape:connector-curvature="0"
       transform="matrix(0.26458333,0,0,0.26458333,0,11.249983)" />
    <path
       style="fill:#0b1d31;fill-opacity:0;stroke:none;stroke-width:1.13154173;stroke-opacity:1"
       d="m 1068.5893,1041.219 c -1.2286,-21.3083 1.9828,-42.32947 7.8418,-51.33019 l 2.6397,-4.05518 -3.6563,-1.32212 c -6.1646,-2.22916 -13.8176,-8.36038 -36.5636,-29.29328 l -21.8567,-20.11442 8.233,-0.35369 c 16.0455,-0.68934 31.3371,1.79398 61.6048,10.0045 13.4129,3.63841 40.192,10.15117 41.7396,10.15117 0.1779,0 4.6305,-5.21923 9.8946,-11.5983 18.7814,-22.7596 44.1333,-45.43385 66.557,-59.52741 10.4498,-6.56776 10.6207,-6.74642 10.9693,-11.46311 0.3268,-4.42185 -0.057,-5.18478 -4.9698,-9.89255 -2.9282,-2.80565 -7.9005,-6.23831 -11.0497,-7.62814 l -5.7258,-2.52695 6.7352,-2.53557 c 13.5411,-5.09775 21.2403,-6.1433 45.7734,-6.21605 22.3709,-0.0663 39.918,1.65338 41.404,4.05783 0.3281,0.53093 -0.027,0.96533 -0.7903,0.96533 -0.7628,0 -1.1419,0.24508 -0.8423,0.54462 0.2995,0.29954 5.6036,-0.42523 11.7869,-1.6106 38.0459,-7.29362 88.7571,-5.77917 129.2493,3.85995 16.5087,3.92987 39.9333,11.96619 40.6995,13.96287 1.9375,5.04899 -10.365,24.25138 -24.7593,38.6457 -11.7261,11.72609 -31.556,26.9933 -47.6863,36.71412 -9.801,5.90652 -11.5224,7.4417 -15.2109,13.56598 -10.32,17.13475 -18.509,24.46478 -38.5715,34.5255 -9.5468,4.78739 -29.437,12.00829 -30.4066,11.03876 -0.2929,-0.2929 0.5214,-2.59838 1.8095,-5.12329 2.9073,-5.69877 2.9423,-8.13869 0.1675,-11.66634 l -2.1745,-2.76448 -14.7499,3.70015 c -29.6373,7.43485 -52.5296,10.42677 -86.7002,11.33134 -27.0696,0.71658 -47.559,-0.4417 -65.2229,-3.68711 -19.3234,-3.55028 -13.5235,-7.27771 -45.0654,28.96206 -15.2272,17.4952 -28.2818,32.304 -29.0102,32.9085 -0.9923,0.8235 -1.5171,-2.2434 -2.0929,-12.2296 z m 339.9364,-148.83089 c 12.1039,-6.20659 12.1144,-23.34087 0.018,-29.41832 -12.5191,-6.28981 -26.0819,4.07332 -23.9894,18.33 0.6379,4.34642 7.702,12.05136 11.7573,12.82386 5.3991,1.0285 7.3697,0.74848 12.214,-1.73554 z"
       id="path870"
       inkscape:connector-curvature="0"
       transform="matrix(0.26458333,0,0,0.26458333,0,11.249983)" />
  </g>
</svg>
